<mxfile host="app.diagrams.net" modified="2023-01-21T15:31:28.363Z" agent="5.0 (Macintosh; Intel Mac OS X 10_15_7) AppleWebKit/537.36 (KHTML, like Gecko) Chrome/109.0.0.0 Safari/537.36" etag="IakOPYyCUTsOkL4Y4OYX" version="20.8.10" type="github">
  <diagram name="Страница 1" id="CXxnIphGbeNzkoDSK4g6">
    <mxGraphModel dx="1194" dy="765" grid="1" gridSize="10" guides="1" tooltips="1" connect="1" arrows="1" fold="1" page="1" pageScale="1" pageWidth="827" pageHeight="1169" math="0" shadow="0">
      <root>
        <mxCell id="0" />
        <mxCell id="1" parent="0" />
        <mxCell id="U6dd22vZikNusdyinbHJ-1" value="" style="rounded=1;whiteSpace=wrap;html=1;strokeWidth=2;fillWeight=4;hachureGap=8;hachureAngle=45;fillColor=#1ba1e2;sketch=1;" parent="1" vertex="1">
          <mxGeometry x="40" y="240" width="100" height="190" as="geometry" />
        </mxCell>
        <mxCell id="U6dd22vZikNusdyinbHJ-3" value="" style="html=1;points=[];perimeter=orthogonalPerimeter;" parent="1" vertex="1">
          <mxGeometry x="470" y="250" width="10" height="40" as="geometry" />
        </mxCell>
        <mxCell id="U6dd22vZikNusdyinbHJ-4" value="&lt;b&gt;Login&lt;/b&gt;&lt;br&gt;[ login; password ]" style="html=1;verticalAlign=bottom;endArrow=block;entryX=0;entryY=0;rounded=0;" parent="1" target="U6dd22vZikNusdyinbHJ-3" edge="1">
          <mxGeometry relative="1" as="geometry">
            <mxPoint x="200" y="250" as="sourcePoint" />
            <mxPoint as="offset" />
          </mxGeometry>
        </mxCell>
        <mxCell id="U6dd22vZikNusdyinbHJ-5" value="[ JWT token ]" style="html=1;verticalAlign=bottom;endArrow=open;dashed=1;endSize=8;exitX=0;exitY=0.95;rounded=0;" parent="1" source="U6dd22vZikNusdyinbHJ-3" edge="1" target="NDpfSDwAYrNhrxv-rHLM-6">
          <mxGeometry relative="1" as="geometry">
            <mxPoint x="200" y="307" as="targetPoint" />
          </mxGeometry>
        </mxCell>
        <mxCell id="U6dd22vZikNusdyinbHJ-6" value="&lt;b&gt;Firebase Token&lt;/b&gt;" style="html=1;verticalAlign=bottom;startArrow=oval;startFill=1;endArrow=block;startSize=8;rounded=0;" parent="1" edge="1">
          <mxGeometry width="60" relative="1" as="geometry">
            <mxPoint x="200" y="390" as="sourcePoint" />
            <mxPoint x="480" y="390" as="targetPoint" />
          </mxGeometry>
        </mxCell>
        <mxCell id="U6dd22vZikNusdyinbHJ-7" value="&lt;b&gt;Firebase register&lt;/b&gt;" style="html=1;verticalAlign=bottom;startArrow=oval;startFill=1;endArrow=block;startSize=8;rounded=0;" parent="1" edge="1">
          <mxGeometry width="60" relative="1" as="geometry">
            <mxPoint x="200" y="350" as="sourcePoint" />
            <mxPoint x="300" y="350" as="targetPoint" />
          </mxGeometry>
        </mxCell>
        <mxCell id="U6dd22vZikNusdyinbHJ-8" value="Firebase" style="rounded=1;whiteSpace=wrap;html=1;fillColor=#fff2cc;strokeColor=#d6b656;strokeWidth=2;" parent="1" vertex="1">
          <mxGeometry x="300" y="330" width="90" height="30" as="geometry" />
        </mxCell>
        <mxCell id="NDpfSDwAYrNhrxv-rHLM-6" value="&lt;br&gt;" style="shape=umlLifeline;participant=umlEntity;perimeter=lifelinePerimeter;whiteSpace=wrap;html=1;container=1;collapsible=0;recursiveResize=0;verticalAlign=top;spacingTop=36;outlineConnect=0;" vertex="1" parent="1">
          <mxGeometry x="180" y="160" width="40" height="540" as="geometry" />
        </mxCell>
        <mxCell id="NDpfSDwAYrNhrxv-rHLM-7" value="&lt;br&gt;" style="shape=umlLifeline;participant=umlEntity;perimeter=lifelinePerimeter;whiteSpace=wrap;html=1;container=1;collapsible=0;recursiveResize=0;verticalAlign=top;spacingTop=36;outlineConnect=0;size=40;" vertex="1" parent="1">
          <mxGeometry x="460" y="160" width="40" height="550" as="geometry" />
        </mxCell>
        <mxCell id="NDpfSDwAYrNhrxv-rHLM-15" value="" style="html=1;points=[];perimeter=orthogonalPerimeter;" vertex="1" parent="1">
          <mxGeometry x="470" y="450" width="10" height="40" as="geometry" />
        </mxCell>
        <mxCell id="NDpfSDwAYrNhrxv-rHLM-16" value="&lt;b&gt;Request Clock List&lt;/b&gt;" style="html=1;verticalAlign=bottom;endArrow=block;entryX=0;entryY=0;rounded=0;" edge="1" parent="1" target="NDpfSDwAYrNhrxv-rHLM-15">
          <mxGeometry relative="1" as="geometry">
            <mxPoint x="200" y="450" as="sourcePoint" />
            <mxPoint as="offset" />
          </mxGeometry>
        </mxCell>
        <mxCell id="NDpfSDwAYrNhrxv-rHLM-17" value="[ Clock ID list ]" style="html=1;verticalAlign=bottom;endArrow=open;dashed=1;endSize=8;rounded=0;exitX=0.1;exitY=0.938;exitDx=0;exitDy=0;exitPerimeter=0;" edge="1" parent="1" source="NDpfSDwAYrNhrxv-rHLM-15">
          <mxGeometry relative="1" as="geometry">
            <mxPoint x="199.5" y="488" as="targetPoint" />
            <mxPoint x="459.5" y="488" as="sourcePoint" />
            <mxPoint as="offset" />
          </mxGeometry>
        </mxCell>
        <mxCell id="NDpfSDwAYrNhrxv-rHLM-18" value="" style="html=1;points=[];perimeter=orthogonalPerimeter;" vertex="1" parent="1">
          <mxGeometry x="470" y="550" width="10" height="40" as="geometry" />
        </mxCell>
        <mxCell id="NDpfSDwAYrNhrxv-rHLM-19" value="&lt;b&gt;Request Brokers&lt;/b&gt;" style="html=1;verticalAlign=bottom;endArrow=block;entryX=0;entryY=0;rounded=0;" edge="1" parent="1" target="NDpfSDwAYrNhrxv-rHLM-18">
          <mxGeometry relative="1" as="geometry">
            <mxPoint x="200" y="550" as="sourcePoint" />
            <mxPoint as="offset" />
          </mxGeometry>
        </mxCell>
        <mxCell id="NDpfSDwAYrNhrxv-rHLM-20" value="[ Broker URL and Creds ]" style="html=1;verticalAlign=bottom;endArrow=open;dashed=1;endSize=8;rounded=0;exitX=0.1;exitY=0.938;exitDx=0;exitDy=0;exitPerimeter=0;" edge="1" parent="1" source="NDpfSDwAYrNhrxv-rHLM-18">
          <mxGeometry relative="1" as="geometry">
            <mxPoint x="199.5" y="588" as="targetPoint" />
            <mxPoint x="459.5" y="588" as="sourcePoint" />
            <mxPoint as="offset" />
          </mxGeometry>
        </mxCell>
        <mxCell id="NDpfSDwAYrNhrxv-rHLM-22" value="&lt;b&gt;Push notification (new issue)&lt;/b&gt;" style="html=1;verticalAlign=bottom;startArrow=oval;startFill=1;endArrow=block;startSize=8;rounded=0;" edge="1" parent="1">
          <mxGeometry width="60" relative="1" as="geometry">
            <mxPoint x="480" y="670" as="sourcePoint" />
            <mxPoint x="200" y="670" as="targetPoint" />
          </mxGeometry>
        </mxCell>
        <mxCell id="NDpfSDwAYrNhrxv-rHLM-25" value="Backend&lt;br&gt;" style="verticalLabelPosition=bottom;verticalAlign=top;html=1;shape=mxgraph.basic.patternFillRect;fillStyle=auto;step=5;fillStrokeWidth=0.2;fillStrokeColor=#dddddd;strokeWidth=2;fillColor=#e1d5e7;strokeColor=#9673a6;" vertex="1" parent="1">
          <mxGeometry x="520" y="270" width="160" height="160" as="geometry" />
        </mxCell>
        <mxCell id="NDpfSDwAYrNhrxv-rHLM-26" value="Mobile App" style="text;html=1;strokeColor=none;fillColor=none;align=center;verticalAlign=middle;whiteSpace=wrap;rounded=0;" vertex="1" parent="1">
          <mxGeometry x="50" y="430" width="60" height="30" as="geometry" />
        </mxCell>
        <mxCell id="NDpfSDwAYrNhrxv-rHLM-28" value="Database&lt;br&gt;" style="shape=datastore;whiteSpace=wrap;html=1;fillStyle=auto;strokeWidth=2;fillColor=#67AB9F;" vertex="1" parent="1">
          <mxGeometry x="680" y="510" width="90" height="80" as="geometry" />
        </mxCell>
        <mxCell id="NDpfSDwAYrNhrxv-rHLM-35" value="" style="edgeStyle=segmentEdgeStyle;endArrow=classic;html=1;curved=0;rounded=0;endSize=8;startSize=8;exitX=1;exitY=0.75;exitDx=0;exitDy=0;exitPerimeter=0;" edge="1" parent="1" source="NDpfSDwAYrNhrxv-rHLM-25">
          <mxGeometry width="50" height="50" relative="1" as="geometry">
            <mxPoint x="700" y="390" as="sourcePoint" />
            <mxPoint x="720" y="510" as="targetPoint" />
          </mxGeometry>
        </mxCell>
        <mxCell id="NDpfSDwAYrNhrxv-rHLM-36" value="" style="rhombus;whiteSpace=wrap;html=1;strokeWidth=2;fillWeight=-1;hachureGap=8;fillStyle=cross-hatch;fillColor=#006600;sketch=1;" vertex="1" parent="1">
          <mxGeometry x="20" y="720" width="120" height="60" as="geometry" />
        </mxCell>
        <mxCell id="NDpfSDwAYrNhrxv-rHLM-37" value="" style="rhombus;whiteSpace=wrap;html=1;strokeWidth=2;fillWeight=-1;hachureGap=8;fillStyle=cross-hatch;fillColor=#006600;sketch=1;" vertex="1" parent="1">
          <mxGeometry x="10" y="700" width="120" height="60" as="geometry" />
        </mxCell>
        <mxCell id="NDpfSDwAYrNhrxv-rHLM-38" value="MQTT Brokers&lt;br&gt;" style="text;html=1;strokeColor=none;fillColor=none;align=center;verticalAlign=middle;whiteSpace=wrap;rounded=0;" vertex="1" parent="1">
          <mxGeometry x="60" y="800" width="60" height="30" as="geometry" />
        </mxCell>
        <mxCell id="NDpfSDwAYrNhrxv-rHLM-41" value="clock&lt;br&gt;data" style="html=1;verticalAlign=bottom;startArrow=circle;startFill=1;endArrow=open;startSize=6;endSize=8;rounded=0;strokeWidth=2;strokeColor=#115f37;" edge="1" parent="1">
          <mxGeometry width="80" relative="1" as="geometry">
            <mxPoint x="89.5" y="690" as="sourcePoint" />
            <mxPoint x="89.5" y="480" as="targetPoint" />
            <mxPoint as="offset" />
          </mxGeometry>
        </mxCell>
        <mxCell id="NDpfSDwAYrNhrxv-rHLM-42" value="clock&lt;br&gt;data" style="html=1;verticalAlign=bottom;startArrow=circle;startFill=1;endArrow=open;startSize=6;endSize=8;rounded=0;strokeWidth=2;strokeColor=#115f37;" edge="1" parent="1">
          <mxGeometry width="80" relative="1" as="geometry">
            <mxPoint x="120" y="710" as="sourcePoint" />
            <mxPoint x="120" y="500" as="targetPoint" />
          </mxGeometry>
        </mxCell>
        <mxCell id="NDpfSDwAYrNhrxv-rHLM-44" value="&lt;h1&gt;&lt;font style=&quot;font-size: 21px;&quot;&gt;System Architecture&lt;/font&gt;&lt;/h1&gt;" style="text;html=1;strokeColor=none;fillColor=none;spacing=5;spacingTop=-20;whiteSpace=wrap;overflow=hidden;rounded=0;fontSize=17;" vertex="1" parent="1">
          <mxGeometry x="20" y="10" width="220" height="70" as="geometry" />
        </mxCell>
        <mxCell id="NDpfSDwAYrNhrxv-rHLM-45" value="Backend requests flow" style="text;html=1;strokeColor=none;fillColor=none;align=left;verticalAlign=middle;whiteSpace=wrap;rounded=0;fontSize=15;" vertex="1" parent="1">
          <mxGeometry x="30" y="60" width="280" height="30" as="geometry" />
        </mxCell>
        <mxCell id="NDpfSDwAYrNhrxv-rHLM-47" value="User Table" style="shape=table;startSize=30;container=1;collapsible=1;childLayout=tableLayout;fixedRows=1;rowLines=0;fontStyle=1;align=center;resizeLast=1;fillStyle=auto;strokeWidth=2;fontSize=15;fillColor=#67AB9F;" vertex="1" parent="1">
          <mxGeometry x="620" y="620" width="180" height="100" as="geometry" />
        </mxCell>
        <mxCell id="NDpfSDwAYrNhrxv-rHLM-48" value="" style="shape=tableRow;horizontal=0;startSize=0;swimlaneHead=0;swimlaneBody=0;fillColor=none;collapsible=0;dropTarget=0;points=[[0,0.5],[1,0.5]];portConstraint=eastwest;top=0;left=0;right=0;bottom=1;fillStyle=auto;strokeWidth=2;fontSize=15;" vertex="1" parent="NDpfSDwAYrNhrxv-rHLM-47">
          <mxGeometry y="30" width="180" height="30" as="geometry" />
        </mxCell>
        <mxCell id="NDpfSDwAYrNhrxv-rHLM-49" value="PK" style="shape=partialRectangle;connectable=0;fillColor=none;top=0;left=0;bottom=0;right=0;fontStyle=1;overflow=hidden;fillStyle=auto;strokeWidth=2;fontSize=15;" vertex="1" parent="NDpfSDwAYrNhrxv-rHLM-48">
          <mxGeometry width="30" height="30" as="geometry">
            <mxRectangle width="30" height="30" as="alternateBounds" />
          </mxGeometry>
        </mxCell>
        <mxCell id="NDpfSDwAYrNhrxv-rHLM-50" value="Login" style="shape=partialRectangle;connectable=0;fillColor=none;top=0;left=0;bottom=0;right=0;align=left;spacingLeft=6;fontStyle=5;overflow=hidden;fillStyle=auto;strokeWidth=2;fontSize=15;" vertex="1" parent="NDpfSDwAYrNhrxv-rHLM-48">
          <mxGeometry x="30" width="150" height="30" as="geometry">
            <mxRectangle width="150" height="30" as="alternateBounds" />
          </mxGeometry>
        </mxCell>
        <mxCell id="NDpfSDwAYrNhrxv-rHLM-51" value="" style="shape=tableRow;horizontal=0;startSize=0;swimlaneHead=0;swimlaneBody=0;fillColor=none;collapsible=0;dropTarget=0;points=[[0,0.5],[1,0.5]];portConstraint=eastwest;top=0;left=0;right=0;bottom=0;fillStyle=auto;strokeWidth=2;fontSize=15;" vertex="1" parent="NDpfSDwAYrNhrxv-rHLM-47">
          <mxGeometry y="60" width="180" height="40" as="geometry" />
        </mxCell>
        <mxCell id="NDpfSDwAYrNhrxv-rHLM-52" value="" style="shape=partialRectangle;connectable=0;fillColor=none;top=0;left=0;bottom=0;right=0;editable=1;overflow=hidden;fillStyle=auto;strokeWidth=2;fontSize=15;" vertex="1" parent="NDpfSDwAYrNhrxv-rHLM-51">
          <mxGeometry width="30" height="40" as="geometry">
            <mxRectangle width="30" height="40" as="alternateBounds" />
          </mxGeometry>
        </mxCell>
        <mxCell id="NDpfSDwAYrNhrxv-rHLM-53" value="Password hash" style="shape=partialRectangle;connectable=0;fillColor=none;top=0;left=0;bottom=0;right=0;align=left;spacingLeft=6;overflow=hidden;fillStyle=auto;strokeWidth=2;fontSize=15;" vertex="1" parent="NDpfSDwAYrNhrxv-rHLM-51">
          <mxGeometry x="30" width="150" height="40" as="geometry">
            <mxRectangle width="150" height="40" as="alternateBounds" />
          </mxGeometry>
        </mxCell>
        <mxCell id="NDpfSDwAYrNhrxv-rHLM-61" value="Clock Table" style="shape=table;startSize=30;container=1;collapsible=1;childLayout=tableLayout;fixedRows=1;rowLines=0;fontStyle=1;align=center;resizeLast=1;fillStyle=auto;strokeWidth=2;fontSize=15;fillColor=#67AB9F;" vertex="1" parent="1">
          <mxGeometry x="620" y="760" width="180" height="100" as="geometry" />
        </mxCell>
        <mxCell id="NDpfSDwAYrNhrxv-rHLM-62" value="" style="shape=tableRow;horizontal=0;startSize=0;swimlaneHead=0;swimlaneBody=0;fillColor=none;collapsible=0;dropTarget=0;points=[[0,0.5],[1,0.5]];portConstraint=eastwest;top=0;left=0;right=0;bottom=1;fillStyle=auto;strokeWidth=2;fontSize=15;" vertex="1" parent="NDpfSDwAYrNhrxv-rHLM-61">
          <mxGeometry y="30" width="180" height="30" as="geometry" />
        </mxCell>
        <mxCell id="NDpfSDwAYrNhrxv-rHLM-63" value="PK" style="shape=partialRectangle;connectable=0;fillColor=none;top=0;left=0;bottom=0;right=0;fontStyle=1;overflow=hidden;fillStyle=auto;strokeWidth=2;fontSize=15;" vertex="1" parent="NDpfSDwAYrNhrxv-rHLM-62">
          <mxGeometry width="30" height="30" as="geometry">
            <mxRectangle width="30" height="30" as="alternateBounds" />
          </mxGeometry>
        </mxCell>
        <mxCell id="NDpfSDwAYrNhrxv-rHLM-64" value="Clock id" style="shape=partialRectangle;connectable=0;fillColor=none;top=0;left=0;bottom=0;right=0;align=left;spacingLeft=6;fontStyle=5;overflow=hidden;fillStyle=auto;strokeWidth=2;fontSize=15;" vertex="1" parent="NDpfSDwAYrNhrxv-rHLM-62">
          <mxGeometry x="30" width="150" height="30" as="geometry">
            <mxRectangle width="150" height="30" as="alternateBounds" />
          </mxGeometry>
        </mxCell>
        <mxCell id="NDpfSDwAYrNhrxv-rHLM-65" value="" style="shape=tableRow;horizontal=0;startSize=0;swimlaneHead=0;swimlaneBody=0;fillColor=none;collapsible=0;dropTarget=0;points=[[0,0.5],[1,0.5]];portConstraint=eastwest;top=0;left=0;right=0;bottom=0;fillStyle=auto;strokeWidth=2;fontSize=15;" vertex="1" parent="NDpfSDwAYrNhrxv-rHLM-61">
          <mxGeometry y="60" width="180" height="40" as="geometry" />
        </mxCell>
        <mxCell id="NDpfSDwAYrNhrxv-rHLM-66" value="" style="shape=partialRectangle;connectable=0;fillColor=none;top=0;left=0;bottom=0;right=0;editable=1;overflow=hidden;fillStyle=auto;strokeWidth=2;fontSize=15;" vertex="1" parent="NDpfSDwAYrNhrxv-rHLM-65">
          <mxGeometry width="30" height="40" as="geometry">
            <mxRectangle width="30" height="40" as="alternateBounds" />
          </mxGeometry>
        </mxCell>
        <mxCell id="NDpfSDwAYrNhrxv-rHLM-67" value="( Broker id )" style="shape=partialRectangle;connectable=0;fillColor=none;top=0;left=0;bottom=0;right=0;align=left;spacingLeft=6;overflow=hidden;fillStyle=auto;strokeWidth=2;fontSize=15;" vertex="1" parent="NDpfSDwAYrNhrxv-rHLM-65">
          <mxGeometry x="30" width="150" height="40" as="geometry">
            <mxRectangle width="150" height="40" as="alternateBounds" />
          </mxGeometry>
        </mxCell>
        <mxCell id="NDpfSDwAYrNhrxv-rHLM-71" value="User-Clock (mtm) Table" style="shape=table;startSize=30;container=1;collapsible=1;childLayout=tableLayout;fixedRows=1;rowLines=0;fontStyle=1;align=center;resizeLast=1;fillStyle=auto;strokeWidth=2;fontSize=15;fillColor=#67AB9F;" vertex="1" parent="1">
          <mxGeometry x="620" y="900" width="180" height="100" as="geometry" />
        </mxCell>
        <mxCell id="NDpfSDwAYrNhrxv-rHLM-72" value="" style="shape=tableRow;horizontal=0;startSize=0;swimlaneHead=0;swimlaneBody=0;fillColor=none;collapsible=0;dropTarget=0;points=[[0,0.5],[1,0.5]];portConstraint=eastwest;top=0;left=0;right=0;bottom=1;fillStyle=auto;strokeWidth=2;fontSize=15;" vertex="1" parent="NDpfSDwAYrNhrxv-rHLM-71">
          <mxGeometry y="30" width="180" height="30" as="geometry" />
        </mxCell>
        <mxCell id="NDpfSDwAYrNhrxv-rHLM-73" value="FK" style="shape=partialRectangle;connectable=0;fillColor=none;top=0;left=0;bottom=0;right=0;fontStyle=1;overflow=hidden;fillStyle=auto;strokeWidth=2;fontSize=15;" vertex="1" parent="NDpfSDwAYrNhrxv-rHLM-72">
          <mxGeometry width="30" height="30" as="geometry">
            <mxRectangle width="30" height="30" as="alternateBounds" />
          </mxGeometry>
        </mxCell>
        <mxCell id="NDpfSDwAYrNhrxv-rHLM-74" value="Clock id" style="shape=partialRectangle;connectable=0;fillColor=none;top=0;left=0;bottom=0;right=0;align=left;spacingLeft=6;fontStyle=5;overflow=hidden;fillStyle=auto;strokeWidth=2;fontSize=15;" vertex="1" parent="NDpfSDwAYrNhrxv-rHLM-72">
          <mxGeometry x="30" width="150" height="30" as="geometry">
            <mxRectangle width="150" height="30" as="alternateBounds" />
          </mxGeometry>
        </mxCell>
        <mxCell id="NDpfSDwAYrNhrxv-rHLM-75" value="" style="shape=tableRow;horizontal=0;startSize=0;swimlaneHead=0;swimlaneBody=0;fillColor=none;collapsible=0;dropTarget=0;points=[[0,0.5],[1,0.5]];portConstraint=eastwest;top=0;left=0;right=0;bottom=0;fillStyle=auto;strokeWidth=2;fontSize=15;" vertex="1" parent="NDpfSDwAYrNhrxv-rHLM-71">
          <mxGeometry y="60" width="180" height="40" as="geometry" />
        </mxCell>
        <mxCell id="NDpfSDwAYrNhrxv-rHLM-76" value="FK" style="shape=partialRectangle;connectable=0;fillColor=none;top=0;left=0;bottom=0;right=0;editable=1;overflow=hidden;fillStyle=auto;strokeWidth=2;fontSize=15;" vertex="1" parent="NDpfSDwAYrNhrxv-rHLM-75">
          <mxGeometry width="30" height="40" as="geometry">
            <mxRectangle width="30" height="40" as="alternateBounds" />
          </mxGeometry>
        </mxCell>
        <mxCell id="NDpfSDwAYrNhrxv-rHLM-77" value="User id" style="shape=partialRectangle;connectable=0;fillColor=none;top=0;left=0;bottom=0;right=0;align=left;spacingLeft=6;overflow=hidden;fillStyle=auto;strokeWidth=2;fontSize=15;" vertex="1" parent="NDpfSDwAYrNhrxv-rHLM-75">
          <mxGeometry x="30" width="150" height="40" as="geometry">
            <mxRectangle width="150" height="40" as="alternateBounds" />
          </mxGeometry>
        </mxCell>
      </root>
    </mxGraphModel>
  </diagram>
</mxfile>
